<svg width="220" height="52" viewBox="0 0 220 52" fill="none" xmlns="http://www.w3.org/2000/svg">
  <defs>
    <linearGradient id="logoGrad" x1="0%" y1="0%" x2="100%" y2="100%">
      <stop offset="0%" style="stop-color:#00D4AA;stop-opacity:1" />
      <stop offset="100%" style="stop-color:#6366F1;stop-opacity:1" />
    </linearGradient>
  </defs>

  <!-- Maple Leaf Structure: Nodes arranged in maple leaf shape -->

  <!-- Top center point -->
  <rect x="24" y="4" width="10" height="7" rx="1.5" fill="url(#logoGrad)" opacity="0.95"/>

  <!-- Upper shoulders (left and right) -->
  <rect x="12" y="12" width="10" height="7" rx="1.5" fill="url(#logoGrad)" opacity="0.9"/>
  <rect x="36" y="12" width="10" height="7" rx="1.5" fill="url(#logoGrad)" opacity="0.9"/>

  <!-- Wide middle points (characteristic maple leaf wings) -->
  <rect x="2" y="20" width="10" height="7" rx="1.5" fill="url(#logoGrad)" opacity="0.85"/>
  <rect x="46" y="20" width="10" height="7" rx="1.5" fill="url(#logoGrad)" opacity="0.85"/>

  <!-- Center node (main body) -->
  <rect x="24" y="22" width="10" height="7" rx="1.5" fill="url(#logoGrad)" opacity="1"/>

  <!-- Lower points (two bottom tips) -->
  <rect x="14" y="32" width="10" height="7" rx="1.5" fill="url(#logoGrad)" opacity="0.9"/>
  <rect x="34" y="32" width="10" height="7" rx="1.5" fill="url(#logoGrad)" opacity="0.9"/>

  <!-- Stem -->
  <rect x="26" y="42" width="6" height="6" rx="1.5" fill="url(#logoGrad)" opacity="0.8"/>

  <!-- Workflow connections (curved like in Gemini image) -->
  <path d="M29 11 L17 15" stroke="#00D4AA" stroke-width="1.2" opacity="0.35"/>
  <path d="M29 11 L41 15" stroke="#6366F1" stroke-width="1.2" opacity="0.35"/>
  <path d="M17 19 L7 23" stroke="#00D4AA" stroke-width="1.2" opacity="0.3"/>
  <path d="M17 19 L29 25" stroke="#00D4AA" stroke-width="1.2" opacity="0.4"/>
  <path d="M41 19 L51 23" stroke="#6366F1" stroke-width="1.2" opacity="0.3"/>
  <path d="M41 19 L29 25" stroke="#6366F1" stroke-width="1.2" opacity="0.4"/>
  <path d="M29 29 L19 35" stroke="#00D4AA" stroke-width="1.2" opacity="0.35"/>
  <path d="M29 29 L39 35" stroke="#6366F1" stroke-width="1.2" opacity="0.35"/>
  <path d="M29 39 L29 42" stroke="#00D4AA" stroke-width="1.2" opacity="0.3"/>

  <!-- Text -->
  <text x="68" y="32" font-family="system-ui, -apple-system, sans-serif" font-size="22" font-weight="700" letter-spacing="-0.5" fill="white">Via6</text>
  <text x="115" y="32" font-family="system-ui, -apple-system, sans-serif" font-size="22" font-weight="400" letter-spacing="-0.3" fill="white" opacity="0.75">AI Labs</text>
</svg>
