<svg width="58" height="58" viewBox="0 0 58 58" fill="none" xmlns="http://www.w3.org/2000/svg">
  <defs>
    <linearGradient id="logoIconGrad" x1="0%" y1="0%" x2="100%" y2="100%">
      <stop offset="0%" style="stop-color:#00D4AA;stop-opacity:1" />
      <stop offset="100%" style="stop-color:#6366F1;stop-opacity:1" />
    </linearGradient>
  </defs>

  <!-- Maple Leaf Icon -->
  <rect x="24" y="4" width="10" height="7" rx="1.5" fill="url(#logoIconGrad)" opacity="0.95"/>
  <rect x="12" y="12" width="10" height="7" rx="1.5" fill="url(#logoIconGrad)" opacity="0.9"/>
  <rect x="36" y="12" width="10" height="7" rx="1.5" fill="url(#logoIconGrad)" opacity="0.9"/>
  <rect x="2" y="20" width="10" height="7" rx="1.5" fill="url(#logoIconGrad)" opacity="0.85"/>
  <rect x="46" y="20" width="10" height="7" rx="1.5" fill="url(#logoIconGrad)" opacity="0.85"/>
  <rect x="24" y="22" width="10" height="7" rx="1.5" fill="url(#logoIconGrad)" opacity="1"/>
  <rect x="14" y="32" width="10" height="7" rx="1.5" fill="url(#logoIconGrad)" opacity="0.9"/>
  <rect x="34" y="32" width="10" height="7" rx="1.5" fill="url(#logoIconGrad)" opacity="0.9"/>
  <rect x="26" y="42" width="6" height="6" rx="1.5" fill="url(#logoIconGrad)" opacity="0.8"/>

  <!-- Connections -->
  <path d="M29 11 L17 15" stroke="#00D4AA" stroke-width="1.2" opacity="0.35"/>
  <path d="M29 11 L41 15" stroke="#6366F1" stroke-width="1.2" opacity="0.35"/>
  <path d="M17 19 L7 23" stroke="#00D4AA" stroke-width="1.2" opacity="0.3"/>
  <path d="M17 19 L29 25" stroke="#00D4AA" stroke-width="1.2" opacity="0.4"/>
  <path d="M41 19 L51 23" stroke="#6366F1" stroke-width="1.2" opacity="0.3"/>
  <path d="M41 19 L29 25" stroke="#6366F1" stroke-width="1.2" opacity="0.4"/>
  <path d="M29 29 L19 35" stroke="#00D4AA" stroke-width="1.2" opacity="0.35"/>
  <path d="M29 29 L39 35" stroke="#6366F1" stroke-width="1.2" opacity="0.35"/>
  <path d="M29 39 L29 42" stroke="#00D4AA" stroke-width="1.2" opacity="0.3"/>
</svg>
